<?xml version="1.0" standalone="no"?>
<!DOCTYPE svg PUBLIC "-//W3C//DTD SVG 20010904//EN"
 "http://www.w3.org/TR/2001/REC-SVG-20010904/DTD/svg10.dtd">
<svg version="1.0" xmlns="http://www.w3.org/2000/svg"
 width="512.000000pt" height="512.000000pt" viewBox="0 0 512.000000 512.000000"
 preserveAspectRatio="xMidYMid meet">
<metadata>
Created by potrace 1.16, written by Peter Selinger 2001-2019
</metadata>
<g transform="translate(0.000000,512.000000) scale(0.100000,-0.100000)"
fill="#000000" stroke="none">
<path d="M2895 4693 c-11 -3 -76 -44 -145 -90 -244 -166 -459 -336 -651 -514
-86 -79 -100 -97 -127 -162 -17 -40 -35 -100 -41 -134 -18 -112 17 -465 75
-752 13 -68 23 -125 22 -126 -2 -2 -45 -8 -96 -14 -51 -6 -117 -20 -146 -32
-79 -29 -185 -108 -297 -220 -81 -81 -99 -104 -99 -129 l0 -29 62 29 c139 66
296 77 382 26 90 -52 163 -171 207 -336 20 -72 23 -110 23 -245 0 -228 -34
-375 -109 -463 -39 -46 -66 -58 -185 -77 -58 -10 -125 -28 -150 -40 -72 -37
-243 -169 -345 -268 -82 -79 -95 -97 -95 -124 0 -18 5 -33 11 -33 6 0 43 16
83 35 87 43 158 53 321 44 238 -14 378 -46 822 -191 l313 -102 0 -163 0 -163
40 0 40 0 0 156 0 156 23 -6 c12 -3 63 -10 112 -16 284 -32 436 8 651 171 273
207 353 274 353 297 1 33 -48 29 -101 -8 -91 -64 -242 -96 -403 -86 -110 7
-312 45 -502 96 l-123 33 0 1498 0 1499 -45 0 -45 0 0 -1485 c0 -1130 -3
-1485 -12 -1485 -6 0 -109 29 -227 64 -119 35 -263 72 -321 81 -58 9 -113 19
-123 22 -15 4 1 25 80 106 109 113 171 195 232 307 82 153 131 356 131 547 0
185 -38 580 -111 1143 -48 376 -55 475 -40 564 24 138 94 238 188 270 94 32
156 19 397 -86 161 -70 258 -104 320 -113 104 -16 277 61 489 216 135 99 137
102 120 121 -31 34 -47 38 -104 23 -112 -30 -175 -16 -372 82 -143 71 -256
105 -367 109 -52 1 -104 0 -115 -3z"/>
</g>
</svg>
